<svg xmlns="http://www.w3.org/2000/svg" width="2000" height="1000"><path d="M0 994.261c21-5.028 63-13.923 105-25.141 42-11.218 63-18.27 105-30.949 42-12.678 63-19.684 105-32.444 42-12.76 63-10.602 105-31.355 42-20.752 63-57.244 105-72.407 42-15.162 63 19.361 105-3.405 42-22.766 63-100.705 105-110.426 42-9.722 63 86.288 105 61.819 42-24.47 63-136.188 105-184.165 42-47.977 63-55.6 105-55.719 42-.118 63 55.297 105 55.13 42-.168 63-51.657 105-55.966 42-4.308 63 64.835 105 34.424 42-30.41 63-129.751 105-186.477s63-112.985 105-97.153c42 15.832 63 191.17 105 176.313 42-14.858 63-239.429 105-250.6 42-11.172 63 164.259 105 194.74 42 30.483 84-33.865 105-42.331l5 661.851H0Z" fill="#444cf71a"/><path d="M0 994.261c21-5.028 63-13.923 105-25.141 42-11.218 63-18.27 105-30.949 42-12.678 63-19.684 105-32.444 42-12.76 63-10.602 105-31.355 42-20.752 63-57.244 105-72.407 42-15.162 63 19.361 105-3.405 42-22.766 63-100.705 105-110.426 42-9.722 63 86.288 105 61.819 42-24.47 63-136.188 105-184.165 42-47.977 63-55.6 105-55.719 42-.118 63 55.297 105 55.13 42-.168 63-51.657 105-55.966 42-4.308 63 64.835 105 34.424 42-30.41 63-129.751 105-186.477s63-112.985 105-97.153c42 15.832 63 191.17 105 176.313 42-14.858 63-239.429 105-250.6 42-11.172 63 164.259 105 194.74 42 30.483 84-33.865 105-42.331" fill="none" stroke="#444cf7" stroke-width="4"/><g fill="#444cf7"><circle cy="994.261" r="8"/><circle cx="105" cy="969.12" r="8"/><circle cx="210" cy="938.171" r="8"/><circle cx="315" cy="905.727" r="8"/><circle cx="420" cy="874.372" r="8"/><circle cx="525" cy="801.965" r="8"/><circle cx="630" cy="798.56" r="8"/><circle cx="735" cy="688.134" r="8"/><circle cx="840" cy="749.953" r="8"/><circle cx="945" cy="565.788" r="8"/><circle cx="1050" cy="510.069" r="8"/><circle cx="1155" cy="565.199" r="8"/><circle cx="1260" cy="509.233" r="8"/><circle cx="1365" cy="543.657" r="8"/><circle cx="1470" cy="357.18" r="8"/><circle cx="1575" cy="260.027" r="8"/><circle cx="1680" cy="436.34" r="8"/><circle cx="1785" cy="185.74" r="8"/><circle cx="1890" cy="380.481" r="8"/><circle cx="1995" cy="338.149" r="8"/></g></svg>